<svg width="61" height="56" viewBox="0 0 61 56" fill="none" xmlns="http://www.w3.org/2000/svg">
<path d="M40.2534 55.4719C39.4705 55.3183 35.7063 54.3396 34.0393 53.8765C32.8962 53.5588 29.6886 52.2408 29.5021 52.1405C29.3979 52.0844 28.5701 51.573 28.0012 51.1157C24.9917 48.6967 19.5677 44.9694 18.8752 42.8389C17.1595 37.5605 19.5408 34.421 19.5408 34.421L22.5692 29.6411C22.5692 29.6411 29.9623 18.665 30.835 17.3833C31.7127 16.0943 35.4786 10.2765 35.8357 7.88144C36.3044 4.73789 35.3484 2.85368 34.242 1.84382C31.1044 -1.01827 25.7534 -0.241668 23.1488 2.08339C21.8704 3.22469 20.1007 6.34831 20.4669 7.83236C20.5963 8.35658 21.2177 8.60713 21.5148 8.51087C22.1347 8.31008 23.2085 6.69689 24.4207 5.84972C25.523 5.07929 26.3297 4.85104 26.9402 4.78311C27.5506 4.71512 28.3808 4.91734 28.3808 4.91734C28.3808 4.91734 27.7285 4.90086 26.9184 5.03915C25.7497 5.23852 25.2196 5.80653 24.6283 6.16453C24.2865 6.37149 22.8244 7.89419 22.7046 8.01363C21.6498 9.06573 21.167 9.06437 20.8046 8.99686C20.3388 8.91009 20.1609 8.559 20.1609 8.559L3.90383 27.0313C3.90383 27.0313 22.7406 10.5269 23.0716 10.4364C23.6555 10.2765 23.141 10.7978 23.141 10.7978L4.14252 27.4212C4.14252 27.4212 20.1177 14.5664 23.1575 12.1572C25.2442 10.5034 27.5303 9.80504 27.388 10.6713C27.2458 11.5376 23.4097 15.081 23.5518 14.9815C23.6938 14.882 9.64666 27.4287 4.82232 32.6924C-6.2813 44.8072 5.26667 55.8325 5.26667 55.8325L40.7093 55.6048C40.7059 55.5668 40.2562 55.5098 40.2534 55.4719Z" fill="#FFE35F"/>
<path d="M25.493 7.7914C25.5577 7.33755 25.7567 6.5882 26.3088 6.32395C26.6614 6.15516 26.9821 6.04466 27.4345 6.04466C27.7011 6.04466 28.2021 6.21698 28.4321 6.2845C28.8298 6.40137 28.95 6.37907 27.6874 7.32778C27.0706 7.79133 27.0025 7.71913 26.5708 7.81919C26.3029 7.88135 25.493 7.7914 25.493 7.7914Z" fill="#2C2C2C"/>
<path d="M26.4806 6.39952C27.7334 5.83998 27.7561 6.95648 27.1057 7.33854C26.4052 7.75002 25.8445 6.68362 26.4806 6.39952Z" fill="#FFE35F"/>
<path d="M57.3486 31.8409C57.2167 32.6145 56.86 32.3353 56.5972 31.976C56.2581 31.2282 55.0814 31.283 54.5077 31.4204C54.0584 31.4233 53.6363 30.8915 53.7079 30.4679C54.004 29.1641 57.686 29.883 57.3486 31.8409ZM53.354 22.3873C53.3428 22.3807 53.3648 22.3898 53.3525 22.3815C53.3117 22.3841 52.5342 22.0815 52.545 22.0732C53.1925 21.5782 53.597 21.4133 53.6325 21.3989C53.8137 21.3253 53.8215 21.2832 54.6148 21.0057C54.8291 20.9307 55.2297 20.779 55.3742 20.7896C55.4381 20.7943 55.6573 21.6893 55.6573 21.6893C55.8173 22.6423 55.6949 22.7694 55.5932 23.5434C55.5215 24.0081 55.648 23.9227 55.4707 23.7228C55.2645 23.4904 54.8254 23.1812 54.5043 22.9957C54.05 22.7382 53.794 22.5228 53.354 22.3873C53.3582 22.3899 53.3629 22.3929 53.3667 22.3947C53.3546 22.389 53.3514 22.387 53.354 22.3873ZM45.9458 23.623C44.254 24.1557 43.4029 24.4941 43.4029 24.4941C43.4029 24.4941 43.2607 24.1669 43.1999 23.4854C42.8987 20.1037 43.9791 19.2777 44.3166 18.9411C44.5961 19.0988 45.4891 19.6384 45.9543 20.1548C46.8663 21.167 47.8864 23.2528 47.8864 23.2528C47.8864 23.2528 46.3708 23.4893 45.9458 23.623ZM58.0183 25.3967C57.1304 24.403 59.3492 23.5694 56.667 19.0325C56.667 19.0325 54.8407 18.8692 51.3674 21.2642C51.0446 21.4869 49.5718 21.253 49.5718 21.253C49.5718 21.253 48.5833 18.7337 44.1408 16.6899C44.1408 16.6899 41.0953 17.3501 41.3805 23.7986L40.6619 25.5469C40.6619 25.5469 36.8219 25.5819 33.9139 26.0939C31.3008 26.554 26.7173 27.8891 23.5119 30.2605C22.4322 31.0592 20.3233 32.1274 18.8064 35.8805C17.6802 38.6671 18.2358 42.4233 19.7336 44.2981C21.2515 46.1981 23.1635 47.4516 24.5478 48.6762C26.2011 50.1388 29.5026 52.1478 29.5026 52.1478C29.5026 52.1478 28.2175 50.2829 28.5293 48.2813C28.7855 46.6369 30.4697 44.4722 31.142 43.8394C32.2624 42.7848 33.4532 42.2547 33.4532 42.2547C33.4532 42.2547 36.519 46.3045 48.74 44.7864C49.0862 44.7434 48.1085 40.3433 46.2598 38.4994C44.9206 37.1637 48.4706 40.5137 53.3372 41.1942C58.2037 41.8746 60.0199 38.9415 60.0199 38.9415C60.0199 38.9415 54.7254 36.8711 59.5861 34.1957C59.9517 33.9946 59.0748 33.8842 60.031 31.5613C60.9872 29.2383 58.9061 26.3905 58.0183 25.3967Z" fill="#FF8326"/>
<path d="M32.4469 53.3245C32.4469 53.3245 31.1859 51.2288 31.5675 49.1112C31.7613 48.0358 32.6087 46.2192 33.2362 45.4252C33.418 45.1952 34.5215 44.1229 34.5215 44.1229C34.5215 44.1229 35.1671 44.4557 35.9079 44.7476C36.6487 45.0393 37.5697 45.359 38.5229 45.5724C39.4369 45.7769 40.7555 45.8278 40.7555 45.8278C40.7555 45.8278 35.9825 51.5031 40.7093 55.6048C40.7093 55.6048 39.856 55.4372 38.0889 54.9865C37.3732 54.804 35.4209 54.254 34.632 54.0458C33.636 53.783 32.4469 53.3245 32.4469 53.3245Z" fill="#FF8326"/>
<path d="M43.6665 45.9762C43.6665 45.9762 42.4796 47.4586 42.4796 50.6653C42.4796 54.605 44.4892 55.7404 44.4892 55.7404C44.4892 55.7404 50.6394 56.2855 52.1929 55.7958C52.8945 55.5747 54.0353 53.2814 53.6513 51.188C53.2225 48.8504 50.6403 47.1935 48.791 46.6071C46.9416 46.0207 43.6665 45.9762 43.6665 45.9762Z" fill="#FF8326"/>
<path d="M60.2908 34.909C60.2908 34.909 61.1111 35.6873 60.9873 37.333C60.951 37.8146 59.374 37.4074 59.0739 36.8443C58.9967 36.6994 58.6741 35.9765 59.1707 35.5866L60.2908 34.909Z" fill="#FF8326"/>
<path d="M54.9917 33.0125C54.7448 33.0879 54.5725 33.372 54.5445 33.5491C54.5203 33.7008 54.6808 34.2056 54.6808 34.2056C54.6808 34.2056 55.1189 34.8463 55.5372 34.6877C55.8489 34.5695 56.2431 33.8369 56.2187 33.4896C56.1873 33.0443 55.4384 32.876 54.9917 33.0125Z" fill="#2C2C2C"/>
<path d="M52.5152 32.9604C51.2506 34.4881 51.2028 38.4119 53.8751 38.9139C53.9959 39.2298 53.9356 39.4986 53.6756 39.6498C50.0284 40.3137 47.624 34.3156 52.5152 32.9604Z" fill="#2C2C2C"/>
</svg>
